# 3ds Max Wavefront OBJ Exporter v0.97b - (c)2007 guruware
# File Created: 06.12.2016 15:35:15

mtllib oven.mtl

#
# object Box003
#

v  9.8508 0.0002 9.2916
v  9.5383 0.0002 9.4791
v  9.1008 0.0002 9.5416
v  -18.8992 0.0002 9.5416
v  -19.3367 0.0002 9.4791
v  -19.6492 0.0002 9.2916
v  -19.8367 0.0002 8.9791
v  -19.8992 0.0002 8.5416
v  -19.8992 0.0002 -19.4584
v  -19.8367 0.0002 -19.8959
v  -19.6492 0.0002 -20.2084
v  -19.3367 0.0002 -20.3959
v  -18.8992 0.0002 -20.4584
v  9.1008 0.0002 -20.4584
v  9.5383 0.0002 -20.3959
v  9.8508 0.0002 -20.2084
v  10.0383 0.0002 -19.8959
v  10.1008 0.0002 -19.4584
v  10.1008 0.0002 8.5416
v  10.0383 0.0002 8.9791
v  8.1771 1.1964 9.5416
v  -18.0485 1.1964 9.5416
v  9.1008 29.0002 9.5416
v  -18.8992 29.0002 9.5416
v  -18.0485 23.2898 9.5416
v  8.1771 23.2898 9.5416
v  -19.3367 29.0002 9.4791
v  -19.6492 29.0002 9.2916
v  -19.8367 29.0002 8.9791
v  -19.8992 29.0002 8.5416
v  -19.8992 29.0002 -19.4584
v  -19.8367 29.0002 -19.8959
v  -19.6492 29.0002 -20.2084
v  -19.3367 29.0002 -20.3959
v  -18.8992 29.0002 -20.4584
v  9.1008 29.0002 -20.4584
v  9.5383 29.0002 -20.3959
v  9.8508 29.0002 -20.2084
v  10.0383 29.0002 -19.8959
v  10.1008 29.0002 -19.4584
v  10.1008 29.0002 8.5416
v  10.0383 29.0002 8.9791
v  9.8508 29.0002 9.2916
v  9.5383 29.0002 9.4791
v  9.1008 29.4377 9.4791
v  -18.8992 29.4377 9.4791
v  -19.3094 29.1916 9.4791
v  -19.6023 29.3284 9.2916
v  -19.7781 29.4104 8.9791
v  -19.8367 29.4377 8.5416
v  -19.8367 29.4377 -19.4584
v  -19.8367 29.1916 -19.8686
v  -19.6492 29.3284 -20.1615
v  -19.3367 29.4104 -20.3373
v  -18.8992 29.4377 -20.3959
v  9.1008 29.4377 -20.3959
v  9.5109 29.1916 -20.3959
v  9.8039 29.3284 -20.2084
v  9.9797 29.4104 -19.8959
v  10.0383 29.4377 -19.4584
v  10.0383 29.4377 8.5416
v  10.0383 29.1916 8.9518
v  9.8508 29.3284 9.2447
v  9.5383 29.4104 9.4205
v  9.1008 29.7502 9.2916
v  -18.8992 29.7502 9.2916
v  -19.0906 29.4104 9.4791
v  -19.2273 29.3284 9.4791
v  -19.4617 29.5627 9.2916
v  -19.6023 29.7034 8.9791
v  -19.6492 29.7502 8.5416
v  -19.6492 29.7502 -19.4584
v  -19.8367 29.4104 -19.6498
v  -19.8367 29.3284 -19.7865
v  -19.6492 29.5627 -20.0209
v  -19.3367 29.7034 -20.1615
v  -18.8992 29.7502 -20.2084
v  9.1008 29.7502 -20.2084
v  9.2922 29.4104 -20.3959
v  9.4289 29.3284 -20.3959
v  9.6633 29.5627 -20.2084
v  9.8039 29.7034 -19.8959
v  9.8508 29.7502 -19.4584
v  9.8508 29.7502 8.5416
v  10.0383 29.4104 8.7330
v  10.0383 29.3284 8.8697
v  9.8508 29.5627 9.1041
v  9.5383 29.7034 9.2447
v  9.1008 29.9377 8.9791
v  -18.8992 29.9377 8.9791
v  -19.2273 29.7034 9.2916
v  -19.3094 29.8791 8.9791
v  -19.3367 29.9377 8.5416
v  -19.3367 29.9377 -19.4584
v  -19.6492 29.7034 -19.7865
v  -19.3367 29.8791 -19.8686
v  -18.8992 29.9377 -19.8959
v  9.1008 29.9377 -19.8959
v  9.4289 29.7034 -20.2084
v  9.5109 29.8791 -19.8959
v  9.5383 29.9377 -19.4584
v  9.5383 29.9377 8.5416
v  9.8508 29.7034 8.8697
v  9.5383 29.8791 8.9518
v  9.1008 30.0002 8.5416
v  -18.8992 30.0002 8.5416
v  -18.8992 30.0002 -19.4584
v  9.1008 30.0002 -19.4584
v  8.1771 1.1964 -11.4875
v  -18.0485 1.1964 -11.4875
v  -18.0485 23.2898 -11.4875
v  8.1771 23.2898 -11.4875
# 112 vertices

vn 0.0000 -1.0000 -0.0000
vn 0.0000 0.0000 1.0000
vn -0.0709 0.0000 0.9975
vn 0.0709 0.0000 0.9975
vn 0.0705 0.0705 0.9950
vn -0.0572 0.0572 0.9967
vn -0.3423 0.0249 0.9393
vn -0.3346 0.0000 0.9424
vn -0.7115 0.0507 0.7009
vn -0.7071 0.0000 0.7071
vn -0.9412 0.0664 0.3311
vn -0.9424 0.0000 0.3346
vn -0.9950 0.0705 0.0705
vn -0.9975 0.0000 0.0709
vn -0.9967 0.0572 -0.0572
vn -0.9975 0.0000 -0.0709
vn -0.9393 0.0249 -0.3423
vn -0.9424 0.0000 -0.3346
vn -0.7009 0.0507 -0.7115
vn -0.7071 0.0000 -0.7071
vn -0.3311 0.0664 -0.9412
vn -0.3346 0.0000 -0.9424
vn -0.0705 0.0705 -0.9950
vn -0.0709 0.0000 -0.9975
vn 0.0572 0.0572 -0.9967
vn 0.0709 0.0000 -0.9975
vn 0.3423 0.0249 -0.9393
vn 0.3346 0.0000 -0.9424
vn 0.7115 0.0507 -0.7009
vn 0.7071 0.0000 -0.7071
vn 0.9412 0.0664 -0.3311
vn 0.9424 0.0000 -0.3346
vn 0.9950 0.0705 -0.0705
vn 0.9975 0.0000 -0.0709
vn 0.9967 0.0572 0.0572
vn 0.9975 0.0000 0.0709
vn 0.9393 0.0249 0.3423
vn 0.9424 0.0000 0.3346
vn 0.7009 0.0507 0.7115
vn 0.7071 0.0000 0.7071
vn 0.3311 0.0664 0.9412
vn 0.3346 0.0000 0.9424
vn 0.0723 0.3345 0.9396
vn -0.0249 0.3423 0.9393
vn -0.3293 0.1138 0.9374
vn -0.6723 0.2374 0.7012
vn -0.8875 0.3166 0.3348
vn -0.9396 0.3345 0.0723
vn -0.9393 0.3423 -0.0249
vn -0.9374 0.1138 -0.3293
vn -0.7012 0.2374 -0.6723
vn -0.3348 0.3166 -0.8875
vn -0.0723 0.3345 -0.9396
vn 0.0249 0.3423 -0.9393
vn 0.3293 0.1138 -0.9374
vn 0.6723 0.2374 -0.7012
vn 0.8875 0.3166 -0.3348
vn 0.9396 0.3345 -0.0723
vn 0.9393 0.3423 0.0249
vn 0.9374 0.1138 0.3293
vn 0.7012 0.2374 0.6723
vn 0.3348 0.3166 0.8875
vn 0.0743 0.7052 0.7052
vn -0.0507 0.7115 0.7009
vn -0.1138 0.3293 0.9374
vn -0.2437 0.2437 0.9387
vn -0.5001 0.5001 0.7069
vn -0.6648 0.6648 0.3409
vn -0.7052 0.7052 0.0743
vn -0.7009 0.7115 -0.0507
vn -0.9374 0.3293 -0.1138
vn -0.9387 0.2437 -0.2437
vn -0.7069 0.5001 -0.5001
vn -0.3409 0.6648 -0.6648
vn -0.0743 0.7052 -0.7052
vn 0.0507 0.7115 -0.7009
vn 0.1138 0.3293 -0.9374
vn 0.2437 0.2437 -0.9387
vn 0.5001 0.5001 -0.7069
vn 0.6648 0.6648 -0.3409
vn 0.7052 0.7052 -0.0743
vn 0.7009 0.7115 0.0507
vn 0.9374 0.3293 0.1138
vn 0.9387 0.2437 0.2437
vn 0.7069 0.5001 0.5001
vn 0.3409 0.6648 0.6648
vn 0.0723 0.9396 0.3345
vn -0.0664 0.9412 0.3311
vn -0.2374 0.6723 0.7012
vn -0.3166 0.8875 0.3348
vn -0.3345 0.9396 0.0723
vn -0.3311 0.9412 -0.0664
vn -0.7012 0.6723 -0.2374
vn -0.3348 0.8875 -0.3166
vn -0.0723 0.9396 -0.3345
vn 0.0664 0.9412 -0.3311
vn 0.2374 0.6723 -0.7012
vn 0.3166 0.8875 -0.3348
vn 0.3345 0.9396 -0.0723
vn 0.3311 0.9412 0.0664
vn 0.7012 0.6723 0.2374
vn 0.3348 0.8875 0.3166
vn 0.0705 0.9950 0.0705
vn -0.0705 0.9950 0.0705
vn -0.0705 0.9950 -0.0705
vn 0.0705 0.9950 -0.0705
vn 0.0000 1.0000 -0.0000
vn 1.0000 0.0000 -0.0000
vn -1.0000 0.0000 -0.0000
# 109 vertex normals

vt 0.0083 0.0083 0.0000
vt 0.0188 0.0021 0.0000
vt 0.0333 0.0000 0.0000
vt 0.9667 0.0000 0.0000
vt 0.9812 0.0021 0.0000
vt 0.9917 0.0083 0.0000
vt 0.9979 0.0188 0.0000
vt 1.0000 0.0333 0.0000
vt 1.0000 0.9667 0.0000
vt 0.9979 0.9812 0.0000
vt 0.9917 0.9917 0.0000
vt 0.9812 0.9979 0.0000
vt 0.9667 1.0000 0.0000
vt 0.0333 1.0000 0.0000
vt 0.0188 0.9979 0.0000
vt 0.0083 0.9917 0.0000
vt 0.0021 0.9812 0.0000
vt 0.0000 0.9667 0.0000
vt 0.0000 0.0333 0.0000
vt 0.0021 0.0188 0.0000
vt 0.9359 0.0399 0.0000
vt 0.0617 0.0399 0.0000
vt 0.9667 0.9667 0.0000
vt 0.0333 0.9667 0.0000
vt 0.0617 0.7763 0.0000
vt 0.9359 0.7763 0.0000
vt 1.0008 0.9575 0.0000
vt 1.0008 -0.0092 0.0000
vt 1.0122 -0.0122 0.0000
vt 1.0122 0.9545 0.0000
vt 0.9894 0.9606 0.0000
vt 0.9894 -0.0061 0.0000
vt 0.9781 0.9636 0.0000
vt 0.9781 -0.0031 0.0000
vt 0.0219 0.9636 0.0000
vt 0.0219 -0.0031 0.0000
vt 0.0106 0.9606 0.0000
vt 0.0106 -0.0061 0.0000
vt -0.0008 0.9575 0.0000
vt -0.0008 -0.0092 0.0000
vt -0.0122 0.9545 0.0000
vt -0.0122 -0.0122 0.0000
vt 0.9667 0.9549 0.0000
vt 0.0333 0.9549 0.0000
vt 0.0000 1.0000 0.0000
vt -0.0047 0.9674 0.0000
vt -0.0075 0.9431 0.0000
vt 0.9667 0.9431 0.0000
vt 0.0333 0.9431 0.0000
vt 0.0183 0.9806 0.0000
vt -0.0037 0.9833 0.0000
vt 0.9667 0.9313 0.0000
vt 0.0333 0.9313 0.0000
vt 0.0065 0.9892 0.0000
vt -0.0047 0.9910 0.0000
vt 0.9667 0.9195 0.0000
vt 0.0333 0.9195 0.0000
vt -0.0021 0.9924 0.0000
vt -0.0075 0.9902 0.0000
vt 0.9667 0.0333 0.0000
vt 0.0333 0.0333 0.0000
vt 0.0000 0.6814 0.0000
vt 1.0000 1.0000 0.0000
vt 1.0000 0.6814 0.0000
vt 0.3186 0.0000 0.0000
vt 0.0000 0.0000 0.0000
vt 0.3186 1.0000 0.0000
vt 1.0000 0.0000 0.0000
vt 0.6814 1.0000 0.0000
vt 0.6814 0.0000 0.0000
# 70 texture coords

g Box003
usemtl wire_154185229
f 1/1/1 2/2/1 3/3/1 4/4/1 5/5/1 6/6/1 7/7/1 8/8/1 9/9/1 10/10/1 11/11/1 12/12/1 13/13/1 14/14/1 15/15/1 16/16/1 17/17/1 18/18/1 19/19/1 20/20/1 
f 21/21/2 22/22/2 4/3/3 3/4/4 23/23/5 24/24/6 4/3/3 22/22/2 25/25/2 26/26/2 
f 27/27/7 5/28/8 4/29/3 24/30/6 
f 28/31/9 6/32/10 5/28/8 27/27/7 
f 29/33/11 7/34/12 6/32/10 28/31/9 
f 30/23/13 8/4/14 7/34/12 29/33/11 
f 8/4/14 30/23/13 31/24/15 9/3/16 
f 9/3/16 31/24/15 32/35/17 10/36/18 
f 10/36/18 32/35/17 33/37/19 11/38/20 
f 11/38/20 33/37/19 34/39/21 12/40/22 
f 12/40/22 34/39/21 35/41/23 13/42/24 
f 13/4/24 35/23/23 36/24/25 14/3/26 
f 14/3/26 36/24/25 37/35/27 15/36/28 
f 15/36/28 37/35/27 38/37/29 16/38/30 
f 16/38/30 38/37/29 39/39/31 17/40/32 
f 17/40/32 39/39/31 40/41/33 18/42/34 
f 18/4/34 40/23/33 41/24/35 19/3/36 
f 19/3/36 41/24/35 42/35/37 20/36/38 
f 20/36/38 42/35/37 43/37/39 1/38/40 
f 1/38/40 43/37/39 44/39/41 2/40/42 
f 2/40/42 44/39/41 23/41/5 3/42/4 
f 24/24/6 23/23/5 45/43/43 46/44/44 
f 24/24/6 47/45/45 27/45/7 
f 47/45/45 48/45/46 28/45/9 27/45/7 
f 48/45/46 49/45/47 29/45/11 28/45/9 
f 49/45/47 50/46/48 30/47/13 29/45/11 
f 31/24/15 30/23/13 50/43/48 51/44/49 
f 31/24/15 52/45/50 32/45/17 
f 52/45/50 53/45/51 33/45/19 32/45/17 
f 53/45/51 54/45/52 34/45/21 33/45/19 
f 54/45/52 55/46/53 35/47/23 34/45/21 
f 36/24/25 35/23/23 55/43/53 56/44/54 
f 36/24/25 57/45/55 37/45/27 
f 57/45/55 58/45/56 38/45/29 37/45/27 
f 58/45/56 59/45/57 39/45/31 38/45/29 
f 59/45/57 60/46/58 40/47/33 39/45/31 
f 41/24/35 40/23/33 60/43/58 61/44/59 
f 41/24/35 62/45/60 42/45/37 
f 62/45/60 63/45/61 43/45/39 42/45/37 
f 63/45/61 64/45/62 44/45/41 43/45/39 
f 64/45/62 45/46/43 23/47/5 44/45/41 
f 46/44/44 45/43/43 65/48/63 66/49/64 
f 24/24/6 46/50/44 67/45/65 
f 24/24/6 68/45/66 47/45/45 
f 68/45/66 69/45/67 48/45/46 47/45/45 
f 69/45/67 70/45/68 49/45/47 48/45/46 
f 70/45/68 71/51/69 50/46/48 49/45/47 
f 51/44/49 50/43/48 71/48/69 72/49/70 
f 31/24/15 51/50/49 73/45/71 
f 31/24/15 74/45/72 52/45/50 
f 74/45/72 75/45/73 53/45/51 52/45/50 
f 75/45/73 76/45/74 54/45/52 53/45/51 
f 76/45/74 77/51/75 55/46/53 54/45/52 
f 56/44/54 55/43/53 77/48/75 78/49/76 
f 36/24/25 56/50/54 79/45/77 
f 36/24/25 80/45/78 57/45/55 
f 80/45/78 81/45/79 58/45/56 57/45/55 
f 81/45/79 82/45/80 59/45/57 58/45/56 
f 82/45/80 83/51/81 60/46/58 59/45/57 
f 61/44/59 60/43/58 83/48/81 84/49/82 
f 41/24/35 61/50/59 85/45/83 
f 41/24/35 86/45/84 62/45/60 
f 86/45/84 87/45/85 63/45/61 62/45/60 
f 87/45/85 88/45/86 64/45/62 63/45/61 
f 88/45/86 65/51/63 45/46/43 64/45/62 
f 66/49/64 65/48/63 89/52/87 90/53/88 
f 66/54/64 91/45/89 67/45/65 46/50/44 
f 24/24/6 67/45/65 68/45/66 
f 91/45/89 69/45/67 68/45/66 67/45/65 
f 92/45/90 70/45/68 69/45/67 91/45/89 
f 93/55/91 71/51/69 70/45/68 92/45/90 
f 72/49/70 71/48/69 93/52/91 94/53/92 
f 72/54/70 95/45/93 73/45/71 51/50/49 
f 31/24/15 73/45/71 74/45/72 
f 95/45/93 75/45/73 74/45/72 73/45/71 
f 96/45/94 76/45/74 75/45/73 95/45/93 
f 97/55/95 77/51/75 76/45/74 96/45/94 
f 78/49/76 77/48/75 97/52/95 98/53/96 
f 78/54/76 99/45/97 79/45/77 56/50/54 
f 36/24/25 79/45/77 80/45/78 
f 99/45/97 81/45/79 80/45/78 79/45/77 
f 100/45/98 82/45/80 81/45/79 99/45/97 
f 101/55/99 83/51/81 82/45/80 100/45/98 
f 84/49/82 83/48/81 101/52/99 102/53/100 
f 84/54/82 103/45/101 85/45/83 61/50/59 
f 41/24/35 85/45/83 86/45/84 
f 103/45/101 87/45/85 86/45/84 85/45/83 
f 104/45/102 88/45/86 87/45/85 103/45/101 
f 89/55/87 65/51/63 88/45/86 104/45/102 
f 90/53/88 89/52/87 105/56/103 106/57/104 
f 90/58/88 92/45/90 91/45/89 66/54/64 
f 106/59/104 93/55/91 92/45/90 90/58/88 
f 94/53/92 93/52/91 106/56/104 107/57/105 
f 94/58/92 96/45/94 95/45/93 72/54/70 
f 107/59/105 97/55/95 96/45/94 94/58/92 
f 98/53/96 97/52/95 107/56/105 108/57/106 
f 98/58/96 100/45/98 99/45/97 78/54/76 
f 108/59/106 101/55/99 100/45/98 98/58/96 
f 102/53/100 101/52/99 108/56/106 105/57/103 
f 102/58/100 104/45/102 103/45/101 84/54/82 
f 105/59/103 89/55/87 104/45/102 102/58/100 
f 105/60/103 108/23/106 107/24/105 106/61/104 
f 21/62/107 109/45/107 110/63/107 22/64/107 
f 22/65/108 110/66/108 111/45/108 25/67/108 
f 112/45/2 111/63/2 110/68/2 109/66/2 
f 26/69/109 112/63/109 109/68/109 21/70/109 
f 25/62/1 111/45/1 112/63/1 26/64/1 
# 91 polygons - 16 triangles

