# 3ds Max Wavefront OBJ Exporter v0.97b - (c)2007 guruware
# File Created: 26.11.2016 17:25:58

mtllib tvStand.mtl

#
# object Box001
#

v  -36.5232 2.7661 -14.3920
v  43.4768 2.7661 -14.3920
v  43.4768 2.7661 25.6080
v  -36.5232 2.7661 25.6080
v  43.4768 22.7661 25.6080
v  43.4768 22.7661 -14.3920
v  -36.5232 22.7661 -14.3920
v  -36.5232 22.7661 25.6080
v  -32.7035 6.2948 -14.3920
v  -32.7035 19.3149 -14.3920
v  -32.7035 6.2948 25.6080
v  -32.7035 19.3149 25.6080
v  39.6689 19.3149 25.6080
v  39.6689 19.3149 -14.3920
v  39.6689 6.2948 -14.3920
v  39.6689 6.2948 25.6080
# 16 vertices

vn 0.0000 -1.0000 -0.0000
vn 0.0000 1.0000 -0.0000
vn 1.0000 0.0000 -0.0000
vn -1.0000 0.0000 -0.0000
vn 0.0000 0.0000 -1.0000
vn 0.0000 0.0000 1.0000
# 6 vertex normals

vt 1.0000 1.0000 0.0000
vt 0.0000 1.0000 0.0000
vt 0.0000 0.0000 0.0000
vt 1.0000 0.0000 0.0000
vt 0.9523 0.1764 0.0000
vt 0.9523 0.8274 0.0000
vt 0.0477 0.1764 0.0000
vt 0.0477 0.8274 0.0000
vt 0.1325 1.0000 0.0000
vt 0.8838 1.0000 0.0000
vt 0.8838 0.0000 0.0000
vt 0.1325 0.0000 0.0000
vt 0.0000 0.1325 0.0000
vt 0.0000 0.8838 0.0000
vt 1.0000 0.8838 0.0000
vt 1.0000 0.1325 0.0000
vt 0.8675 0.0000 0.0000
vt 0.1162 0.0000 0.0000
vt 0.1162 1.0000 0.0000
vt 0.8675 1.0000 0.0000
vt 0.0476 0.8274 0.0000
vt 0.0476 0.1764 0.0000
vt 0.9524 0.8274 0.0000
vt 0.9524 0.1764 0.0000
# 24 texture coords

g Box001
usemtl wire_115115115
s 2
f 1/1/1 2/2/1 3/3/1 4/4/1 
s 4
f 5/4/2 6/1/2 7/2/2 8/3/2 
s 16
f 2/4/3 6/1/3 5/2/3 3/3/3 
s 64
f 4/4/4 8/1/4 7/2/4 1/3/4 
s 32
f 9/5/5 1/4/5 7/1/5 10/6/5 
s 8
f 11/7/6 12/8/6 8/2/6 4/3/6 
s 1
f 13/9/4 14/10/4 15/11/4 16/12/4 
s 2
f 16/13/2 15/14/2 9/15/2 11/16/2 
s 1
f 11/17/3 9/18/3 10/19/3 12/20/3 
s 2
f 12/13/1 10/14/1 14/15/1 13/16/1 
s 32
f 14/21/5 10/6/5 7/1/5 6/2/5 
f 2/3/5 15/22/5 14/21/5 6/2/5 
f 1/4/5 9/5/5 15/22/5 2/3/5 
s 8
f 8/2/6 12/8/6 13/23/6 5/1/6 
f 13/23/6 16/24/6 3/4/6 5/1/6 
f 16/24/6 11/7/6 4/3/6 3/4/6 
# 16 polygons

#
# object Box002
#

v  33.4334 2.6844 -11.1091
v  33.4334 2.6844 -7.1091
v  37.4334 2.6844 -7.1091
v  37.4334 2.6844 -11.1091
v  37.4334 0.6844 -7.1091
v  33.4334 0.6844 -7.1091
v  33.4334 0.6844 -11.1091
v  37.4334 0.6844 -11.1091
# 8 vertices

vn 0.0000 1.0000 -0.0000
vn 0.0000 -1.0000 -0.0000
vn 0.0000 0.0000 1.0000
vn 1.0000 0.0000 -0.0000
vn 0.0000 0.0000 -1.0000
vn -1.0000 0.0000 -0.0000
# 6 vertex normals

vt 0.0000 1.0000 0.0000
vt 0.0000 0.0000 0.0000
vt 1.0000 0.0000 0.0000
vt 1.0000 1.0000 0.0000
# 4 texture coords

g Box002
usemtl wire_166229229
s 2
f 17/25/7 18/26/7 19/27/7 20/28/7 
s 4
f 21/26/8 22/27/8 23/28/8 24/25/8 
s 8
f 19/27/9 18/26/9 22/25/9 21/28/9 
s 16
f 20/27/10 19/26/10 21/25/10 24/28/10 
s 32
f 17/27/11 20/26/11 24/25/11 23/28/11 
s 64
f 18/27/12 17/26/12 23/25/12 22/28/12 
# 6 polygons

#
# object Box003
#

v  -29.1155 2.6844 -11.1091
v  -29.1155 2.6844 -7.1091
v  -25.1155 2.6844 -7.1091
v  -25.1155 2.6844 -11.1091
v  -25.1155 0.6844 -7.1091
v  -29.1155 0.6844 -7.1091
v  -29.1155 0.6844 -11.1091
v  -25.1155 0.6844 -11.1091
# 8 vertices

vn 0.0000 1.0000 -0.0000
vn 0.0000 -1.0000 -0.0000
vn 0.0000 0.0000 1.0000
vn 1.0000 0.0000 -0.0000
vn 0.0000 0.0000 -1.0000
vn -1.0000 0.0000 -0.0000
# 6 vertex normals

vt 0.0000 1.0000 0.0000
vt 0.0000 0.0000 0.0000
vt 1.0000 0.0000 0.0000
vt 1.0000 1.0000 0.0000
# 4 texture coords

g Box003
usemtl wire_166229229
s 2
f 25/29/13 26/30/13 27/31/13 28/32/13 
s 4
f 29/30/14 30/31/14 31/32/14 32/29/14 
s 8
f 27/31/15 26/30/15 30/29/15 29/32/15 
s 16
f 28/31/16 27/30/16 29/29/16 32/32/16 
s 32
f 25/31/17 28/30/17 32/29/17 31/32/17 
s 64
f 26/31/18 25/30/18 31/29/18 30/32/18 
# 6 polygons

#
# object Box004
#

v  33.4334 2.6844 17.2387
v  33.4334 2.6844 21.2387
v  37.4334 2.6844 21.2387
v  37.4334 2.6844 17.2387
v  37.4334 0.6844 21.2387
v  33.4334 0.6844 21.2387
v  33.4334 0.6844 17.2387
v  37.4334 0.6844 17.2387
# 8 vertices

vn 0.0000 1.0000 -0.0000
vn 0.0000 -1.0000 -0.0000
vn 0.0000 0.0000 1.0000
vn 1.0000 0.0000 -0.0000
vn 0.0000 0.0000 -1.0000
vn -1.0000 0.0000 -0.0000
# 6 vertex normals

vt 0.0000 1.0000 0.0000
vt 0.0000 0.0000 0.0000
vt 1.0000 0.0000 0.0000
vt 1.0000 1.0000 0.0000
# 4 texture coords

g Box004
usemtl wire_166229229
s 2
f 33/33/19 34/34/19 35/35/19 36/36/19 
s 4
f 37/34/20 38/35/20 39/36/20 40/33/20 
s 8
f 35/35/21 34/34/21 38/33/21 37/36/21 
s 16
f 36/35/22 35/34/22 37/33/22 40/36/22 
s 32
f 33/35/23 36/34/23 40/33/23 39/36/23 
s 64
f 34/35/24 33/34/24 39/33/24 38/36/24 
# 6 polygons

#
# object Box005
#

v  -29.1155 2.6844 17.3145
v  -29.1155 2.6844 21.3145
v  -25.1155 2.6844 21.3145
v  -25.1155 2.6844 17.3145
v  -25.1155 0.6844 21.3145
v  -29.1155 0.6844 21.3145
v  -29.1155 0.6844 17.3145
v  -25.1155 0.6844 17.3145
# 8 vertices

vn 0.0000 1.0000 -0.0000
vn 0.0000 -1.0000 -0.0000
vn 0.0000 0.0000 1.0000
vn 1.0000 0.0000 -0.0000
vn 0.0000 0.0000 -1.0000
vn -1.0000 0.0000 -0.0000
# 6 vertex normals

vt 0.0000 1.0000 0.0000
vt 0.0000 0.0000 0.0000
vt 1.0000 0.0000 0.0000
vt 1.0000 1.0000 0.0000
# 4 texture coords

g Box005
usemtl wire_166229229
s 2
f 41/37/25 42/38/25 43/39/25 44/40/25 
s 4
f 45/38/26 46/39/26 47/40/26 48/37/26 
s 8
f 43/39/27 42/38/27 46/37/27 45/40/27 
s 16
f 44/39/28 43/38/28 45/37/28 48/40/28 
s 32
f 41/39/29 44/38/29 48/37/29 47/40/29 
s 64
f 42/39/30 41/38/30 47/37/30 46/40/30 
# 6 polygons

